<?xml version="1.0" encoding="UTF-8"?><svg id="Layer_2" xmlns="http://www.w3.org/2000/svg" viewBox="0 0 46.92 53.41"><g id="Layer_1-2"><path d="M42.98,21.88c-2.63-1.95-5.52-2.93-8.69-2.93H15.87c-1.99,0-2.99,.55-2.99,1.64v16.59H5.95V1.64c0-1.09-.99-1.64-2.96-1.64S0,.55,0,1.64V38.82c0,1.09,1,1.64,2.99,1.64H12.88v11.31c0,1.09,1,1.64,2.99,1.64s2.96-.55,2.96-1.64v-11.05h15.47c3.16,0,6.06-.98,8.69-2.94s3.94-4.61,3.94-7.95-1.31-5.99-3.94-7.94Zm-3.9,13.08c-1.26,1.65-2.86,2.48-4.79,2.48h-15.47v-15.21h15.47c1.93,0,3.53,.82,4.79,2.46s1.89,3.35,1.89,5.13-.63,3.49-1.89,5.14Z"/></g></svg>