<?xml version="1.0" encoding="UTF-8"?><svg id="Layer_2" xmlns="http://www.w3.org/2000/svg" viewBox="0 0 229.51 72.87"><defs><style>.cls-1{fill:#fff;}</style></defs><g id="Layer_1-2"><g><path class="cls-1" d="M0,42.72V.72H5.46V39.42H27.12v3.3H0Z"/><path class="cls-1" d="M35.61,14.46c.86-2.56,2.21-4.91,4.05-7.05,1.84-2.14,4.18-3.91,7.02-5.31,2.84-1.4,6.24-2.1,10.2-2.1s7.47,.71,10.41,2.13c2.94,1.42,5.37,3.21,7.29,5.37,1.92,2.16,3.34,4.51,4.26,7.05,.92,2.54,1.38,4.93,1.38,7.17,0,1.48-.21,3.04-.63,4.68-.42,1.64-1.04,3.27-1.86,4.89-.82,1.62-1.87,3.16-3.15,4.62-1.28,1.46-2.79,2.75-4.53,3.87-1.74,1.12-3.7,2.01-5.88,2.67-2.18,.66-4.61,.99-7.29,.99-3.96,0-7.36-.71-10.2-2.13-2.84-1.42-5.18-3.21-7.02-5.37-1.84-2.16-3.19-4.51-4.05-7.05-.86-2.54-1.29-4.93-1.29-7.17s.43-4.7,1.29-7.26Zm5.88,14.97c.86,2.34,2.04,4.35,3.54,6.03s3.27,2.99,5.31,3.93c2.04,.94,4.26,1.41,6.66,1.41s4.59-.47,6.69-1.41c2.1-.94,3.94-2.25,5.52-3.93,1.58-1.68,2.83-3.69,3.75-6.03,.92-2.34,1.38-4.91,1.38-7.71s-.46-5.37-1.38-7.71c-.92-2.34-2.17-4.35-3.75-6.03-1.58-1.68-3.42-2.99-5.52-3.93-2.1-.94-4.33-1.41-6.69-1.41s-4.62,.47-6.66,1.41c-2.04,.94-3.81,2.25-5.31,3.93-1.5,1.68-2.68,3.69-3.54,6.03-.86,2.34-1.29,4.91-1.29,7.71s.43,5.37,1.29,7.71Z"/><path class="cls-1" d="M131.04,42.72h-5.1v-2.46c-1.52,.8-3.45,1.53-5.77,2.19-2.32,.66-4.99,.99-7.99,.99-4.01,0-7.45-.63-10.34-1.89-2.89-1.26-5.26-2.94-7.12-5.04-1.86-2.1-3.25-4.48-4.15-7.14s-1.35-5.41-1.35-8.25c0-3.32,.58-6.29,1.74-8.91,1.16-2.62,2.78-4.83,4.86-6.63,2.08-1.8,4.55-3.18,7.41-4.14,2.86-.96,5.99-1.44,9.39-1.44,2.96,0,5.53,.33,7.71,.99,2.18,.66,4.01,1.47,5.49,2.43,1.48,.96,2.65,1.99,3.51,3.09,.86,1.1,1.47,2.09,1.83,2.97h-4.32c-.24-.84-.77-1.67-1.59-2.49-.82-.82-1.87-1.55-3.15-2.19-1.28-.64-2.74-1.16-4.38-1.56-1.64-.4-3.4-.6-5.28-.6-2.84,0-5.33,.46-7.47,1.38-2.14,.92-3.95,2.22-5.43,3.9-1.48,1.68-2.59,3.68-3.33,6-.74,2.32-1.11,4.86-1.11,7.62s.39,5.37,1.17,7.71,1.95,4.36,3.52,6.06c1.56,1.7,3.53,3.03,5.89,3.99s5.13,1.44,8.3,1.44c2.4,0,4.55-.28,6.43-.84,1.88-.56,3.73-1.42,5.53-2.58v-10.86h-6.72v-2.46h11.82v18.72Z"/><path class="cls-1" d="M152.1,.72V42.72h-5.46V.72h5.46Z"/><path class="cls-1" d="M208.44,36.6c-.52,.6-1.28,1.3-2.28,2.1-1,.8-2.25,1.55-3.75,2.25-1.5,.7-3.26,1.29-5.28,1.77-2.02,.48-4.31,.72-6.87,.72-4.04,0-7.52-.63-10.44-1.89-2.92-1.26-5.32-2.92-7.2-4.98-1.88-2.06-3.27-4.42-4.17-7.08s-1.35-5.39-1.35-8.19c0-3.24,.56-6.17,1.68-8.79,1.12-2.62,2.7-4.86,4.74-6.72s4.49-3.29,7.35-4.29c2.86-1,6.03-1.5,9.51-1.5,2.4,0,4.54,.24,6.42,.72,1.88,.48,3.52,1.14,4.92,1.98,1.4,.84,2.57,1.84,3.51,3,.94,1.16,1.71,2.42,2.31,3.78h-4.44c-.28-.84-.77-1.67-1.47-2.49-.7-.82-1.6-1.55-2.7-2.19-1.1-.64-2.36-1.16-3.78-1.56-1.42-.4-2.99-.6-4.71-.6-2.52,0-4.85,.46-6.99,1.38-2.14,.92-3.99,2.2-5.55,3.84-1.56,1.64-2.77,3.59-3.63,5.85-.86,2.26-1.29,4.75-1.29,7.47,0,2.56,.41,5.02,1.23,7.38,.82,2.36,2.03,4.44,3.63,6.24,1.6,1.8,3.6,3.24,6,4.32,2.4,1.08,5.16,1.62,8.28,1.62,5.6,0,10.44-1.92,14.52-5.76l1.8,1.62Z"/></g><g><path class="cls-1" d="M131.16,57.55h1.74v1.65h.08c.5-1.25,1.57-1.88,3.19-1.88,.68,0,1.31,.13,1.88,.38,.57,.25,1.07,.61,1.48,1.08s.74,1.03,.97,1.69c.23,.65,.35,1.39,.35,2.21s-.12,1.54-.35,2.2c-.23,.66-.56,1.22-.97,1.69-.42,.46-.91,.82-1.48,1.07s-1.2,.38-1.88,.38c-.33,0-.65-.03-.97-.1-.32-.07-.62-.18-.91-.33-.29-.15-.54-.35-.77-.59-.22-.25-.41-.54-.54-.9h-.08v6.78h-1.74v-15.32Zm1.74,5.86c0,.56,.08,1.06,.23,1.49s.36,.81,.62,1.11c.26,.31,.56,.54,.9,.69,.34,.16,.7,.23,1.08,.23,.42,0,.82-.08,1.2-.23,.38-.16,.72-.41,1.01-.76,.29-.35,.52-.79,.69-1.34,.17-.54,.26-1.2,.26-1.98s-.09-1.42-.26-1.96c-.17-.54-.4-.99-.68-1.33-.29-.34-.62-.59-1.01-.75-.39-.16-.79-.23-1.22-.23-.39,0-.77,.09-1.11,.26-.35,.17-.65,.4-.91,.69-.26,.29-.46,.64-.6,1.04-.14,.4-.21,.83-.21,1.28v1.78Z"/><path class="cls-1" d="M147.25,57.32c.99,0,1.77,.14,2.31,.42,.55,.28,.94,.64,1.2,1.09,.25,.45,.4,.97,.44,1.55,.04,.59,.06,1.18,.06,1.8v5.58h-1.65v-1c-.39,.38-.9,.68-1.51,.91-.61,.22-1.23,.34-1.84,.34s-1.1-.1-1.55-.31c-.45-.2-.82-.47-1.12-.8-.3-.33-.52-.69-.67-1.1-.15-.41-.22-.82-.22-1.25s.08-.87,.25-1.31,.41-.83,.74-1.17c.33-.35,.73-.63,1.21-.85s1.02-.33,1.63-.33,1.19,.12,1.75,.36c.55,.24,1,.58,1.36,1.01v-.88c0-1.12-.17-1.95-.5-2.49-.34-.54-.95-.82-1.84-.82-.38,0-.72,.05-1,.14-.29,.1-.54,.23-.77,.4-.23,.17-.43,.38-.63,.63-.19,.25-.38,.53-.57,.85l-1.05-1.06c.19-.2,.39-.41,.6-.61,.21-.2,.47-.39,.78-.55,.31-.16,.67-.3,1.09-.4,.42-.1,.93-.15,1.53-.15Zm2.35,6.39c-.07-.16-.17-.35-.3-.57-.13-.22-.3-.43-.5-.63-.21-.2-.45-.38-.74-.52-.29-.14-.63-.21-1.03-.21s-.76,.08-1.09,.23-.6,.36-.83,.61c-.23,.25-.4,.55-.52,.89-.12,.34-.18,.69-.18,1.06,0,.44,.08,.81,.24,1.13,.16,.32,.36,.59,.6,.82,.25,.22,.52,.39,.82,.5,.3,.11,.59,.16,.86,.16s.52-.05,.79-.14c.27-.09,.52-.23,.76-.4s.45-.37,.65-.6c.19-.23,.35-.48,.47-.76v-1.57Z"/><path class="cls-1" d="M156.26,57.55v1.63h.12c.25-.61,.56-1.08,.94-1.39s.86-.47,1.43-.47c.07,0,.17,.01,.32,.03,.14,.02,.3,.06,.47,.12,.17,.06,.34,.15,.51,.26,.17,.11,.32,.24,.44,.41l-.69,1.27c-.12-.18-.32-.37-.58-.57-.27-.2-.56-.31-.87-.31-.23,0-.47,.05-.71,.16-.25,.11-.47,.29-.67,.53-.2,.24-.37,.56-.5,.95-.13,.39-.19,.86-.19,1.42v6.17h-1.74v-10.21h1.74Z"/><path class="cls-1" d="M161.31,58.37v-.82h1.78v-3.15h1.74v3.15h2.47v.82h-2.47v6.78c0,.16,0,.35,.02,.56,.01,.21,.05,.41,.12,.59,.07,.18,.17,.34,.32,.46,.14,.12,.34,.18,.6,.18,.33,0,.6-.12,.82-.37,.22-.24,.39-.51,.53-.8l.96,.98c-.67,.67-1.42,1-2.27,1-.35,0-.7-.06-1.04-.18-.34-.12-.64-.31-.91-.56-.27-.25-.48-.58-.64-.97-.16-.39-.25-.86-.25-1.39v-6.29h-1.78Z"/><path class="cls-1" d="M176.79,67.76v-6.72c0-.14-.01-.35-.04-.65-.03-.3-.11-.6-.26-.9-.14-.3-.37-.56-.68-.79-.31-.22-.76-.34-1.33-.34-.35,0-.7,.06-1.03,.18-.33,.12-.63,.31-.89,.57s-.46,.58-.61,.96c-.15,.38-.22,.84-.22,1.37v6.31h-1.74v-10.21h1.74v1.31h.08l.33-.33c.48-.48,.96-.8,1.45-.97,.49-.17,.93-.25,1.33-.23,.9,0,1.59,.15,2.08,.46s.85,.67,1.07,1.08c.22,.42,.36,.84,.4,1.27,.04,.43,.06,.77,.06,1.01v6.62h-1.74Z"/><path class="cls-1" d="M183.19,63.11c0,.83,.12,1.51,.37,2.04,.24,.53,.55,.95,.92,1.25,.37,.3,.76,.51,1.19,.62,.43,.12,.83,.17,1.21,.17,.34,0,.65-.04,.93-.11s.55-.18,.8-.32,.51-.31,.76-.51,.52-.43,.8-.67l.65,.65c-.54,.57-1.18,1.01-1.92,1.32s-1.54,.46-2.41,.46-1.68-.15-2.34-.46c-.66-.31-1.21-.72-1.63-1.23s-.75-1.09-.96-1.74c-.21-.65-.32-1.31-.32-1.99,0-.82,.12-1.55,.37-2.2,.25-.65,.59-1.2,1.02-1.65,.44-.46,.95-.8,1.53-1.04,.59-.24,1.23-.36,1.92-.36,.65,0,1.27,.11,1.86,.33,.59,.22,1.1,.54,1.54,.98s.79,.99,1.05,1.65c.26,.67,.39,1.46,.39,2.37v.43h-7.74Zm5.94-.82c0-1.32-.27-2.36-.8-3.12-.53-.76-1.28-1.13-2.24-1.13-.5,0-.93,.12-1.3,.36-.37,.24-.67,.56-.9,.95-.24,.4-.41,.85-.53,1.36-.12,.51-.17,1.04-.17,1.58h5.94Z"/><path class="cls-1" d="M195.32,57.55v1.63h.12c.25-.61,.56-1.08,.94-1.39s.86-.47,1.43-.47c.07,0,.17,.01,.32,.03,.14,.02,.3,.06,.47,.12,.17,.06,.34,.15,.51,.26,.17,.11,.32,.24,.44,.41l-.69,1.27c-.12-.18-.32-.37-.58-.57-.27-.2-.56-.31-.87-.31-.23,0-.47,.05-.71,.16-.25,.11-.47,.29-.67,.53-.2,.24-.37,.56-.5,.95-.13,.39-.19,.86-.19,1.42v6.17h-1.74v-10.21h1.74Z"/><path class="cls-1" d="M206.75,59.88c0-.18-.05-.37-.14-.57-.1-.2-.24-.39-.45-.56-.2-.17-.45-.31-.75-.43-.3-.12-.65-.17-1.06-.17s-.75,.06-1.02,.17-.49,.26-.65,.43c-.16,.17-.28,.35-.35,.55-.07,.2-.1,.39-.1,.56,0,.42,.15,.75,.46,.98,.31,.23,.69,.43,1.15,.59,.46,.16,.96,.32,1.5,.47,.54,.15,1.03,.34,1.5,.58,.46,.24,.84,.56,1.15,.95,.31,.4,.46,.92,.46,1.57,0,.9-.32,1.62-.95,2.18-.63,.55-1.58,.83-2.83,.83-.69,0-1.3-.09-1.83-.26-.52-.17-.97-.4-1.33-.68-.36-.29-.63-.61-.81-.97-.18-.36-.27-.73-.27-1.11h1.33c0,.16,.05,.37,.15,.61,.1,.25,.27,.49,.51,.73,.24,.24,.54,.44,.92,.61,.37,.17,.83,.26,1.38,.26,.44,0,.8-.06,1.08-.17,.29-.12,.51-.26,.67-.43,.16-.17,.28-.36,.34-.56,.06-.2,.09-.4,.09-.59,0-.45-.15-.8-.45-1.06s-.67-.47-1.12-.64c-.45-.17-.93-.33-1.46-.47-.52-.14-1.01-.33-1.46-.56-.45-.23-.82-.54-1.12-.92-.3-.38-.45-.9-.45-1.55,0-.48,.09-.9,.26-1.26,.18-.36,.42-.66,.72-.91,.31-.25,.66-.43,1.08-.55s.86-.18,1.33-.18c.5,0,.97,.06,1.42,.19,.44,.13,.83,.31,1.16,.53,.33,.22,.59,.49,.78,.81,.19,.31,.29,.65,.29,1.02h-1.16Z"/></g><path class="cls-1" d="M215.64,5.43c.38-.87,.9-1.64,1.55-2.29,.65-.65,1.42-1.17,2.29-1.55,.87-.38,1.81-.57,2.81-.57s1.94,.19,2.81,.57c.87,.38,1.64,.9,2.29,1.55,.65,.65,1.17,1.42,1.55,2.29,.38,.87,.57,1.81,.57,2.81s-.19,1.92-.57,2.8c-.38,.88-.9,1.65-1.55,2.3-.65,.65-1.42,1.17-2.29,1.55-.87,.38-1.81,.57-2.81,.57s-1.94-.19-2.81-.57c-.87-.38-1.64-.9-2.29-1.55s-1.17-1.42-1.55-2.3c-.38-.88-.57-1.81-.57-2.8s.19-1.94,.57-2.81Zm1.2,5.1c.31,.71,.74,1.34,1.28,1.88s1.17,.97,1.88,1.28c.71,.31,1.48,.47,2.29,.47s1.58-.16,2.29-.47c.71-.31,1.34-.74,1.88-1.28s.97-1.17,1.28-1.88,.47-1.48,.47-2.29-.16-1.58-.47-2.29c-.31-.71-.74-1.34-1.28-1.88s-1.17-.97-1.88-1.28c-.71-.31-1.48-.47-2.29-.47s-1.58,.16-2.29,.47c-.71,.31-1.34,.74-1.88,1.28s-.97,1.17-1.28,1.88c-.31,.71-.47,1.48-.47,2.29s.16,1.58,.47,2.29Zm2.81-6.01h2.54c.56,0,1.01,.08,1.35,.25,.34,.17,.6,.37,.78,.6,.18,.23,.3,.47,.35,.7s.08,.41,.08,.53c0,.19-.03,.38-.09,.59-.06,.21-.16,.41-.3,.61-.14,.2-.32,.38-.54,.54-.22,.16-.48,.28-.79,.36l1.56,2.2c.07,.11,.17,.24,.32,.4,.15,.16,.37,.24,.68,.24,.12,0,.24-.02,.36-.06v.64c-.12,.08-.24,.13-.35,.16-.11,.03-.28,.04-.49,.04-.25,0-.46-.03-.63-.09-.17-.06-.32-.15-.45-.26s-.25-.24-.35-.39c-.1-.15-.21-.3-.33-.46-.07-.09-.17-.26-.32-.5-.15-.24-.3-.49-.47-.74-.17-.25-.32-.48-.47-.67-.15-.19-.25-.29-.3-.29h-.86v3.28h-1.28V4.52Zm1.28,3.64h.92c.16,0,.33-.03,.51-.08,.18-.05,.35-.14,.51-.25,.16-.11,.29-.26,.39-.45,.1-.19,.15-.42,.15-.7,0-.39-.15-.73-.45-1.03-.3-.3-.68-.45-1.13-.45h-.9v2.96Z"/></g></svg>